<?xml version="1.0" encoding="UTF-8" standalone="no"?>
<!-- Created with Inkscape (http://www.inkscape.org/) -->

<svg
   width="210mm"
   height="297mm"
   viewBox="0 0 210 297"
   version="1.1"
   id="svg1"
   inkscape:version="1.3.2 (091e20e, 2023-11-25, custom)"
   sodipodi:docname="крот.svg"
   xmlns:inkscape="http://www.inkscape.org/namespaces/inkscape"
   xmlns:sodipodi="http://sodipodi.sourceforge.net/DTD/sodipodi-0.dtd"
   xmlns:xlink="http://www.w3.org/1999/xlink"
   xmlns="http://www.w3.org/2000/svg"
   xmlns:svg="http://www.w3.org/2000/svg">
  <sodipodi:namedview
     id="namedview1"
     pagecolor="#ffffff"
     bordercolor="#000000"
     borderopacity="0.25"
     inkscape:showpageshadow="2"
     inkscape:pageopacity="0.0"
     inkscape:pagecheckerboard="0"
     inkscape:deskcolor="#d1d1d1"
     inkscape:document-units="mm"
     showguides="true"
     inkscape:zoom="0.74564394"
     inkscape:cx="429.15926"
     inkscape:cy="463.35789"
     inkscape:window-width="1751"
     inkscape:window-height="1033"
     inkscape:window-x="64"
     inkscape:window-y="0"
     inkscape:window-maximized="0"
     inkscape:current-layer="layer1" />
  <defs
     id="defs1">
    <inkscape:path-effect
       effect="bspline"
       id="path-effect25"
       is_visible="true"
       lpeversion="1.3"
       weight="33.333333"
       steps="2"
       helper_size="0"
       apply_no_weight="true"
       apply_with_weight="true"
       only_selected="false"
       uniform="false" />
    <inkscape:path-effect
       effect="bspline"
       id="path-effect23"
       is_visible="true"
       lpeversion="1.3"
       weight="33.333333"
       steps="2"
       helper_size="0"
       apply_no_weight="true"
       apply_with_weight="true"
       only_selected="false"
       uniform="false" />
    <inkscape:path-effect
       effect="spiro"
       id="path-effect18"
       is_visible="true"
       lpeversion="1" />
    <inkscape:path-effect
       effect="spiro"
       id="path-effect17"
       is_visible="true"
       lpeversion="1" />
    <inkscape:path-effect
       effect="spiro"
       id="path-effect16"
       is_visible="true"
       lpeversion="1" />
    <inkscape:path-effect
       effect="bspline"
       id="path-effect6"
       is_visible="true"
       lpeversion="1.3"
       weight="100"
       steps="10"
       helper_size="0"
       apply_no_weight="true"
       apply_with_weight="true"
       only_selected="false"
       uniform="false" />
    <inkscape:path-effect
       effect="fillet_chamfer"
       id="path-effect5"
       is_visible="true"
       lpeversion="1"
       nodesatellites_param="F,0,0,1,0,0,0,1 @ F,0,0,1,0,0,0,1 @ F,0,0,1,0,0,0,1 @ F,0,0,1,0,0,0,1 @ F,0,0,1,0,0,0,1 @ F,0,0,1,0,0,0,1 @ F,0,0,1,0,0,0,1 @ F,0,0,1,0,0,0,1 @ F,0,0,1,0,0,0,1 @ F,0,0,1,0,0,0,1 @ F,0,0,1,0,0,0,1 @ F,0,0,1,0,0,0,1 @ F,0,0,1,0,0,0,1 @ F,0,0,1,0,0,0,1 @ F,0,0,1,0,0,0,1"
       radius="0"
       unit="px"
       method="auto"
       mode="F"
       chamfer_steps="1"
       flexible="false"
       use_knot_distance="true"
       apply_no_radius="true"
       apply_with_radius="true"
       only_selected="false"
       hide_knots="false" />
    <inkscape:path-effect
       effect="spiro"
       id="path-effect4"
       is_visible="true"
       lpeversion="1" />
    <inkscape:path-effect
       effect="spiro"
       id="path-effect3"
       is_visible="true"
       lpeversion="1" />
    <inkscape:path-effect
       effect="spiro"
       id="path-effect2"
       is_visible="true"
       lpeversion="1" />
    <linearGradient
       id="linearGradient20"
       inkscape:collect="always">
      <stop
         style="stop-color:#573f09;stop-opacity:1;"
         offset="0.12668464"
         id="stop20" />
      <stop
         style="stop-color:#564101;stop-opacity:0;"
         offset="1"
         id="stop21" />
    </linearGradient>
    <linearGradient
       inkscape:collect="always"
       xlink:href="#linearGradient20"
       id="linearGradient21"
       x1="103.75081"
       y1="190.81619"
       x2="103.24899"
       y2="140.75989"
       gradientUnits="userSpaceOnUse" />
  </defs>
  <g
     inkscape:label="Слой 1"
     inkscape:groupmode="layer"
     id="layer1">
    <ellipse
       style="fill:none;fill-opacity:1;stroke-width:0.276;stroke:none;stroke-opacity:1;fill-rule:nonzero;stroke-dasharray:none"
       id="path1"
       cx="106.62904"
       cy="165.53226"
       rx="44.532257"
       ry="20.048386" />
    <circle
       id="path6"
       style="fill:#97853d;stroke:#000000;stroke-width:0.264583"
       cx="-84.80645"
       cy="124.90322"
       r="0.047264166" />
    <path
       d="m 103.42263,150.72878 a 49.357975,21.518494 0 0 0 -49.357713,21.51807 49.357975,21.518494 0 0 0 49.357713,21.51858 49.357975,21.518494 0 0 0 49.35823,-21.51858 49.357975,21.518494 0 0 0 -49.35823,-21.51807 z"
       style="fill:url(#linearGradient21);stroke-width:0.922;fill-opacity:1;stroke:#b77a40;stroke-opacity:1;stroke-dasharray:none;stroke-linejoin:bevel;stroke-linecap:square;paint-order:markers stroke fill"
       id="path20" />
    <path
       id="path3"
       style="fill:#4f3d2e;fill-opacity:1;stroke:none;stroke-width:0.861;stroke-linecap:round;stroke-linejoin:bevel;stroke-dasharray:none;paint-order:markers stroke fill;image-rendering:optimizeQuality"
       d="m 101.76666,53.774753 c -3.769369,0.349419 -10.990978,1.054114 -17.755853,3.080949 -6.764876,2.026836 -13.073018,5.375814 -17.024543,9.371521 -3.951524,3.995708 -5.546431,8.638147 -6.727324,14.460013 -1.180892,5.821866 -1.947771,12.82316 -2.47065,28.303864 -0.522879,15.48071 -0.80176,39.44084 0.21196,53.39787 1.01372,13.95703 3.320037,17.91096 11.971017,21.46441 8.650981,3.55344 23.646622,6.70639 34.830783,7.59419 11.18416,0.8878 18.55683,-0.48954 25.13274,-3.2097 6.57592,-2.72016 12.35506,-6.78314 14.4384,-14.40911 2.08333,-7.62598 0.47086,-18.81497 -0.76395,-29.6013 -1.23481,-10.78634 -2.09195,-21.17003 -2.96847,-29.48081 -0.87652,-8.31077 -1.77241,-14.54863 -4.41118,-22.980502 -2.63878,-8.431873 -7.02042,-19.057752 -12.32079,-25.811604 -5.30037,-6.753853 -11.51945,-9.635672 -14.78756,-11.079513 -3.2681,-1.44384 -3.58522,-1.449696 -7.35458,-1.100278 z"
       inkscape:original-d="m 105.2189,53.419478 c -7.221609,0.704694 -14.443218,1.409389 -21.664827,2.114083 -6.308142,3.348977 -12.616284,6.697955 -18.924426,10.046932 -1.594907,4.642438 -3.189814,9.284877 -4.784721,13.927315 -0.766878,7.001294 -1.533757,14.002588 -2.300635,21.003882 -0.27888,23.96012 -0.557761,47.92025 -0.836641,71.88037 2.306319,3.95394 4.612638,7.90787 6.918957,11.86181 14.995641,3.15295 29.991282,6.3059 44.986923,9.45885 7.37268,-1.37735 14.74535,-2.75469 22.11803,-4.13204 5.77915,-4.06297 11.55829,-8.12595 17.33744,-12.18892 -1.61248,-11.18898 -3.22495,-22.37797 -4.83743,-33.56695 -0.85714,-10.38369 -1.71428,-20.76738 -2.57142,-31.15107 -0.8959,-6.23786 -1.79179,-12.47572 -2.68769,-18.713584 -4.38165,-10.62588 -8.76329,-21.251761 -13.14494,-31.877641 -6.21909,-2.881822 -12.43817,-5.763645 -18.65726,-8.645467 -0.31712,-0.0059 -0.63424,-0.01171 -0.95136,-0.01757 z"
       inkscape:path-effect="#path-effect6"
       transform="matrix(1.0484384,0,0,1.0145315,-3.0272874,-1.531381)" />
    <ellipse
       style="fill:#000000;fill-opacity:1;stroke:none;stroke-width:1.18487;stroke-linecap:round;stroke-linejoin:bevel;stroke-dasharray:none;paint-order:markers stroke fill"
       id="path7"
       ry="9.4090824"
       rx="9.1581736"
       cy="103.49989"
       cx="78.158119" />
    <ellipse
       style="fill:#000000;fill-opacity:1;stroke:none;stroke-width:1.18487;stroke-linecap:round;stroke-linejoin:bevel;stroke-dasharray:none;paint-order:markers stroke fill"
       id="ellipse8"
       ry="9.4090824"
       rx="9.1581736"
       cy="103.49989"
       cx="78.158119" />
    <ellipse
       style="fill:#000000;fill-opacity:1;stroke:none;stroke-width:0.860999;stroke-linecap:round;stroke-linejoin:bevel;stroke-dasharray:none;paint-order:markers stroke fill"
       id="path8"
       cx="117.67625"
       cy="102.99808"
       rx="9.7854452"
       ry="9.9109001" />
    <ellipse
       style="fill:#ffffff;fill-opacity:1;stroke:none;stroke-width:0.395174;stroke-linecap:round;stroke-linejoin:bevel;stroke-dasharray:none;paint-order:markers stroke fill"
       id="path9"
       cx="74.770836"
       cy="100.9908"
       rx="4.7672682"
       ry="5.1436315" />
    <ellipse
       style="fill:#ffffff;fill-opacity:1;stroke:none;stroke-width:0.860999;stroke-linecap:round;stroke-linejoin:bevel;stroke-dasharray:none;paint-order:markers stroke fill"
       id="path10"
       cx="113.53625"
       cy="100.23808"
       rx="4.6418138"
       ry="4.8927226" />
    <rect
       style="fill:#766c59;fill-opacity:1;stroke:none;stroke-width:0.860999;stroke-linecap:round;stroke-linejoin:bevel;stroke-dasharray:none;paint-order:markers stroke fill"
       id="rect16"
       width="21.578161"
       height="14.552714"
       x="90.82901"
       y="119.68352" />
    <path
       style="fill:#40392e;fill-opacity:0.824411;stroke:none;stroke-width:0.860999;stroke-linecap:round;stroke-linejoin:bevel;stroke-dasharray:none;paint-order:markers stroke fill"
       d="m 92.878092,120.14352 c 0.627272,-0.62727 3.554544,-0.54364 7.276358,-0.50182 3.72181,0.0418 8.23818,0.0418 10.20363,0.12546 1.96545,0.0836 1.38,0.25091 0.71091,0.62727 -0.6691,0.37636 -1.42182,0.96182 -2.34182,1.75636 -0.92,0.79455 -2.00727,1.79818 -3.0109,2.42546 -1.00364,0.62727 -1.92364,0.87818 -3.05273,1.50545 -1.12909,0.62727 -2.46727,1.63091 -3.679997,1.25454 -1.212725,-0.37636 -2.299997,-2.13272 -3.679995,-3.67999 -1.379999,-1.54727 -3.052727,-2.88546 -2.425456,-3.51273 z"
       id="path25"
       inkscape:path-effect="#path-effect25"
       inkscape:original-d="m 90.578097,119.43261 c 2.927268,0.0836 5.854539,0.16728 8.78181,0.25091 4.516353,0 9.032723,0 13.549073,0 -0.58545,0.16728 -1.1709,0.33455 -1.75636,0.50182 -0.75273,0.58545 -1.50545,1.17091 -2.25818,1.75636 -1.08727,1.00364 -2.17454,2.00727 -3.26181,3.01091 -0.92,0.25091 -1.84,0.50182 -2.76,0.75273 -1.33818,1.00363 -2.67636,2.00727 -4.01454,3.0109 -1.087274,-1.75636 -2.174544,-3.51272 -3.261815,-5.26908 -1.672728,-1.33818 -3.345453,-2.67637 -5.018178,-4.01455 z"
       transform="matrix(1.172039,0,0,1.4178979,-17.711661,-50.738785)" />
    <path
       style="fill:#ffe6d5;fill-opacity:0.824411;stroke:none;stroke-width:0.860999;stroke-linecap:round;stroke-linejoin:bevel;stroke-dasharray:none;paint-order:markers stroke fill"
       id="path26"
       d="m 111.45084,119.74654 c 4.09692,0.36776 8.23483,0.31731 12.33275,-0.0183 3.62462,-0.45218 7.17032,-1.38237 10.67123,-2.40175 1.23375,-0.36852 2.43954,-0.82061 3.64838,-1.26174 0,0 -3.70893,-0.4514 -3.70893,-0.4514 v 0 c -1.15956,0.44968 -2.31976,0.90099 -3.5147,1.25075 -3.47258,1.02107 -6.99044,1.9599 -10.60018,2.33674 -0.60767,0.044 -1.21457,0.10063 -1.82303,0.13188 -0.59468,0.0306 -1.67101,-0.53087 -1.78559,0.0535 -0.1138,0.58036 1.19092,0.10192 1.77424,0.004 0.0313,-0.005 -1.27281,5.3e-4 -2.59178,-0.13363 -0.16916,-0.0172 -0.33605,-0.0521 -0.50407,-0.0782 z" />
    <path
       style="fill:#ffe6d5;fill-opacity:0.824411;stroke:none;stroke-width:0.860999;stroke-linecap:round;stroke-linejoin:bevel;stroke-dasharray:none;paint-order:markers stroke fill"
       id="path27"
       d="m 111.19993,126.27017 c 3.49475,0.49825 7.01947,0.72871 10.53466,1.03092 3.94518,0.33507 7.89211,0.66122 11.82899,1.08434 0,0 3.48501,-0.51557 3.48501,-0.51557 v 0 c -3.99839,-0.39013 -8.00286,-0.71714 -12.00533,-1.06248 -3.3188,-0.31103 -6.66354,-0.49648 -9.94501,-1.10504 z" />
    <path
       style="fill:#ffe6d5;fill-opacity:0.824411;stroke:none;stroke-width:0.860999;stroke-linecap:round;stroke-linejoin:bevel;stroke-dasharray:none;paint-order:markers stroke fill"
       id="path28"
       d="m 110.79545,133.85673 c 2.80196,1.18026 5.64272,2.26674 8.47034,3.38372 2.97178,1.1532 5.89652,2.40833 8.78083,3.76423 0,0 3.56697,-0.40918 3.56697,-0.40918 v 0 c -2.93627,-1.30518 -5.87006,-2.61252 -8.86814,-3.77175 -2.70777,-1.08695 -5.44581,-2.12788 -8.06628,-3.41333 z" />
    <path
       style="fill:#ffe6d5;fill-opacity:0.824411;stroke:none;stroke-width:0.860999;stroke-linecap:round;stroke-linejoin:bevel;stroke-dasharray:none;paint-order:markers stroke fill"
       id="path29"
       d="m 92.646552,120.39366 c -1.714635,-0.7711 -3.599471,-1.12824 -5.424713,-1.54257 -3.267553,-0.73365 -6.554877,-1.36765 -9.85208,-1.95131 0,0 -3.438337,0.4838 -3.438337,0.4838 v 0 c 3.25552,0.56088 6.495775,1.20216 9.714119,1.9493 1.702784,0.41793 3.444827,0.78659 5.065786,1.4677 z" />
    <path
       style="fill:#ffe6d5;fill-opacity:0.824411;stroke:none;stroke-width:0.860999;stroke-linecap:round;stroke-linejoin:bevel;stroke-dasharray:none;paint-order:markers stroke fill"
       id="path30"
       d="m 92.650642,126.15224 c -4.283405,-0.0517 -8.567025,-0.10646 -12.849143,0.0741 -0.664699,0.0432 -1.329396,0.0863 -1.994093,0.12953 0,0 3.464521,0.52589 3.464521,0.52589 v 0 c 0.654235,-0.0418 1.30847,-0.0837 1.962705,-0.12553 0.703768,-0.0258 1.415849,0.0333 2.111309,-0.0776 0.477086,-0.0761 -1.93185,-0.0101 -1.44907,-0.028 1.631505,-0.0606 3.261228,0.12205 4.892003,0.11321 z" />
    <path
       style="fill:#ffe6d5;fill-opacity:0.824411;stroke:none;stroke-width:0.860999;stroke-linecap:round;stroke-linejoin:bevel;stroke-dasharray:none;paint-order:markers stroke fill"
       id="path31"
       d="m 83.183546,125.90016 c -1.218697,0.0114 -2.437471,0.008 -3.656197,0.004 -0.780466,-0.006 -1.561092,0.0235 -2.338711,-0.0526 -0.679039,-0.0753 -1.35963,-0.13163 -2.037431,-0.21776 0,0 -3.847087,0.55791 -3.847087,0.55791 v 0 c 0.671711,0.0911 1.342192,0.17191 2.018004,0.22759 0.792919,0.10228 1.581755,0.11386 2.38217,0.0903 1.200878,-0.003 2.401814,-0.008 3.602657,0.004 z" />
    <path
       style="fill:#ffe6d5;fill-opacity:0.824411;stroke:none;stroke-width:0.860999;stroke-linecap:round;stroke-linejoin:bevel;stroke-dasharray:none;paint-order:markers stroke fill"
       id="path32"
       d="m 77.018776,116.60924 c -0.837433,-0.2309 -1.698345,-0.33404 -2.557915,-0.43865 -0.728604,-0.089 -0.365847,-0.0465 -1.08826,-0.12769 0,0 -3.823071,0.56353 -3.823071,0.56353 v 0 c 0.716632,0.0738 0.359664,0.034 1.070912,0.11929 0.829368,0.12476 1.672897,0.16673 2.485911,0.39204 z" />
    <path
       style="fill:#ffe6d5;fill-opacity:0.824411;stroke:none;stroke-width:0.860999;stroke-linecap:round;stroke-linejoin:bevel;stroke-dasharray:none;paint-order:markers stroke fill"
       id="path33"
       d="m 72.488244,116.72794 c 0.573752,0.18471 1.078439,0.51916 1.629069,0.75691 0.443055,0.18466 0.221789,0.092 0.663797,0.27812 0,0 3.8832,-0.46168 3.8832,-0.46168 v 0 c -0.442026,-0.17456 -0.222822,-0.0817 -0.657553,-0.27883 -0.558491,-0.21401 -1.069795,-0.50793 -1.596803,-0.78693 z" />
    <path
       style="fill:#ffe6d5;fill-opacity:0.824411;stroke:none;stroke-width:0.860999;stroke-linecap:round;stroke-linejoin:bevel;stroke-dasharray:none;paint-order:markers stroke fill"
       id="path34"
       d="m 92.81924,133.67657 c -1.637549,0.0166 -4.216966,0.0415 -5.162653,0.0859 -0.520586,0.0244 -2.423258,0.46361 -2.769947,0.53936 -3.375369,0.73749 -0.25781,0.0667 -3.928808,0.8514 -1.943502,0.40429 -3.885309,0.8164 -5.829276,1.21843 0,0 3.537952,0.48404 3.537952,0.48404 v 0 c 1.902487,-0.42251 3.80469,-0.84691 5.715196,-1.23213 1.915017,-0.38975 3.82896,-0.83995 5.760675,-1.14224 0.415555,-0.065 1.670341,-0.10461 1.252524,-0.15302 -0.964464,-0.11172 -1.941652,-0.0258 -2.912472,-0.0393 -0.145989,-0.002 0.291983,0.003 0.437975,0.005 z" />
    <rect
       style="fill:#ffe6d5;fill-opacity:0.824411;stroke:none;stroke-width:0.908868;stroke-linecap:round;stroke-linejoin:bevel;stroke-dasharray:none;paint-order:markers stroke fill"
       id="rect34"
       width="9.7854452"
       height="15.054531"
       x="91.330818"
       y="134.23624" />
    <rect
       style="fill:#ffe6d5;fill-opacity:0.824411;stroke:none;stroke-width:0.926198;stroke-linecap:round;stroke-linejoin:bevel;stroke-dasharray:none;paint-order:markers stroke fill"
       id="rect35"
       width="10.036354"
       height="15.054531"
       x="101.869"
       y="134.23624" />
    <path
       id="path36"
       style="fill:#f881ec;fill-opacity:1;stroke:none;stroke-width:0.428764;stroke-linecap:round;stroke-linejoin:bevel;stroke-dasharray:none;paint-order:markers stroke fill"
       d="m 91.313448,133.96496 a 6.34885,6.7279903 6.5899842 0 0 -5.795451,6.46054 6.34885,6.7279903 6.5899842 0 0 6.042878,6.94357 c 0.02804,-0.73903 0.05628,-1.47819 0.06626,-2.21756 0.004,-0.63477 -0.0053,-1.26944 -0.03684,-1.90321 -0.03396,-0.8687 -0.0073,-1.73753 -0.01171,-2.60696 -0.0079,-0.86328 -0.04517,-1.72575 -0.03743,-2.58931 -0.02168,-0.78269 -0.06942,-1.56363 -0.120487,-2.34463 -0.02404,-0.582 -0.06983,-1.16189 -0.107205,-1.74244 z m 3.119179,1.36249 c 0.0056,0.0328 0.01187,0.0654 0.01753,0.0981 0.0087,-0.004 0.01597,-0.0119 0.02638,-0.015 0.0068,-0.002 0.01373,-0.004 0.02058,-0.006 -0.02152,-0.0258 -0.04286,-0.0517 -0.06447,-0.0774 z m -1.104855,4.45252 c 0.0061,0.27633 0.01301,0.55254 0.0156,0.829 5.91e-4,0.0691 -0.001,0.13821 -9.32e-4,0.20734 0.0398,-0.0159 0.07949,-0.0313 0.115099,-0.0442 -0.02074,-0.17358 -0.03991,-0.34734 -0.06292,-0.52065 -0.02177,-0.15728 -0.04495,-0.31428 -0.06688,-0.47155 z m 2.352049,1.94529 c -0.0075,0.2448 -0.01343,0.48962 -0.01802,0.73444 0.03064,0.002 0.06161,0.004 0.09323,0.009 -0.01912,-0.24852 -0.04281,-0.49646 -0.0752,-0.74317 z m -0.286576,4.10341 c -0.04071,0.006 -0.08547,0.0115 -0.123905,0.0154 0.0023,0.004 0.0061,0.0101 0.0079,0.015 0.0045,0.014 -0.0098,0.0319 -0.02327,0.038 -0.03782,0.0174 -0.08365,0.0114 -0.121363,0.0286 -0.0366,0.0171 -0.136617,0.0782 -0.09659,0.0735 0.07008,-0.009 0.131013,-0.054 0.19458,-0.0851 0.05511,-0.0269 0.108768,-0.0568 0.162731,-0.0859 z m -1.683308,0.83688 c -0.07219,0.0314 -0.145634,0.0564 -0.224026,0.0592 -0.04739,0.002 -0.09296,0.002 -0.137068,3.4e-4 -0.0053,0.14769 -0.0099,0.2954 -0.01543,0.44308 a 6.34885,6.7279903 6.5899842 0 0 0.586876,-0.19869 c -0.03948,-0.0497 -0.07806,-0.0985 -0.122861,-0.15291 -0.03053,-0.0498 -0.0594,-0.1 -0.08746,-0.15065 z" />
    <path
       id="path40"
       style="fill:#f881ec;fill-opacity:1;stroke:none;stroke-width:0.428764;stroke-linecap:round;stroke-linejoin:bevel;stroke-dasharray:none;paint-order:markers stroke fill"
       d="m 112.08856,147.67385 a 6.34885,6.7279903 6.9228762 0 0 5.83288,-6.42676 6.34885,6.7279903 6.9228762 0 0 -6.00243,-6.97856 c -0.0323,0.73886 -0.0649,1.47784 -0.0792,2.21714 -0.008,0.63474 -0.002,1.26945 0.0258,1.90339 0.0285,0.8689 -0.003,1.73755 -0.003,2.60699 0.003,0.86331 0.0352,1.72598 0.0224,2.58948 0.017,0.78281 0.0603,1.56401 0.10691,2.34529 0.0204,0.58213 0.063,1.16228 0.0971,1.74304 z m -3.11122,-1.38058 c -0.006,-0.0329 -0.0118,-0.0655 -0.017,-0.0982 -0.009,0.004 -0.0161,0.0118 -0.0265,0.0148 -0.007,0.002 -0.0137,0.004 -0.0207,0.006 0.0213,0.0259 0.0426,0.0519 0.064,0.0778 z m 1.13071,-4.44603 c -0.005,-0.27635 -0.01,-0.55261 -0.0107,-0.82908 5e-5,-0.0691 0.002,-0.13821 0.002,-0.20733 -0.0399,0.0156 -0.0797,0.0308 -0.11535,0.0436 0.0197,0.17369 0.0379,0.34757 0.0599,0.52101 0.0208,0.15741 0.0432,0.31453 0.0642,0.47192 z m -2.3407,-1.95892 c 0.008,-0.24475 0.0162,-0.48954 0.0222,-0.73433 -0.0306,-0.002 -0.0615,-0.004 -0.0931,-0.01 0.0177,0.24863 0.0399,0.4967 0.0708,0.7436 z m 0.31041,-4.10167 c 0.0407,-0.006 0.0855,-0.0114 0.12399,-0.0147 -0.002,-0.004 -0.006,-0.0101 -0.007,-0.0151 -0.005,-0.014 0.0102,-0.0319 0.0235,-0.0379 0.0379,-0.0172 0.0837,-0.0114 0.12152,-0.0279 0.0367,-0.0168 0.13707,-0.0774 0.097,-0.073 -0.0702,0.009 -0.13133,0.0532 -0.19508,0.084 -0.0553,0.0266 -0.10909,0.0562 -0.16322,0.0849 z m 1.68814,-0.8271 c 0.0724,-0.0309 0.14597,-0.0555 0.22437,-0.0579 0.0474,-0.002 0.093,-0.002 0.13706,1.5e-4 0.006,-0.14767 0.0117,-0.29534 0.0179,-0.44299 a 6.34885,6.7279903 6.9228762 0 0 -0.58803,0.19528 c 0.0392,0.0499 0.0775,0.099 0.12196,0.15362 0.0302,0.05 0.0588,0.10035 0.0866,0.15116 z"
       inkscape:transform-center-x="-14.34001"
       inkscape:transform-center-y="6.0088968" />
  </g>
</svg>
